name rise44.8762peak52.3436fall86.788.mot
datacolumns 19
datarows 20
range 8.91496100000000 8.94662600000000
endheader
time	ground_force1_vx	ground_force1_vy	ground_force1_vz	ground_force1_px	ground_force1_py	ground_force1_pz	ground_force2_vx	ground_force2_vy	ground_force2_vz	ground_force2_px	ground_force2_py	ground_force2_pz	ground_torque1_x	ground_torque1_y	ground_torque1_z	ground_torque2_x	ground_torque2_y	ground_torque2_z	
8.91496100000000	-6.76764600000000	41.83662900000000	-10.39049000000000	0.28472400000000	0.00000000000000	0.09119200000000	-44.05951100000000	793.07077100000004	-60.77096800000000	0.08198100000000	0.00000000000000	-0.10328700000000	0.00000000000000	-5.92189000000000	0.00000000000000	0.00000000000000	-16.94538800000000	0.00000000000000	
8.91663500000000	-7.43069500000000	48.99605400000000	-11.66482600000000	0.28820400000000	0.00000000000000	0.09234900000000	-44.61343000000000	790.05071199999998	-60.37358200000000	0.08132500000000	0.00000000000000	-0.10317000000000	0.00000000000000	-6.70943400000000	0.00000000000000	0.00000000000000	-16.90467700000000	0.00000000000000	
8.91829600000000	-7.96672300000000	56.23459400000000	-12.81528200000000	0.29138500000000	0.00000000000000	0.09341400000000	-45.18164300000000	786.91300200000001	-59.95196100000000	0.08067200000000	0.00000000000000	-0.10304800000000	0.00000000000000	-7.43888800000000	0.00000000000000	0.00000000000000	-16.86716000000000	0.00000000000000	
8.91996700000000	-8.35678400000000	63.45790600000000	-13.81409900000000	0.29431600000000	0.00000000000000	0.09440000000000	-45.76379400000000	783.65678100000002	-59.50599300000000	0.08002200000000	0.00000000000000	-0.10292200000000	0.00000000000000	-8.09354600000000	0.00000000000000	0.00000000000000	-16.83284800000000	0.00000000000000	
8.92163300000000	-8.58932900000000	70.59483200000000	-14.64290400000000	0.29703400000000	0.00000000000000	0.09531900000000	-46.35944500000000	780.28114500000004	-59.03559000000000	0.07937600000000	0.00000000000000	-0.10279000000000	0.00000000000000	-8.66189700000000	0.00000000000000	0.00000000000000	-16.80173100000000	0.00000000000000	
8.92329800000000	-8.66012200000000	77.59955500000000	-15.29282800000000	0.29956800000000	0.00000000000000	0.09617900000000	-46.96807400000000	776.78513799999996	-58.54069000000000	0.07873500000000	0.00000000000000	-0.10265300000000	0.00000000000000	-9.13778000000000	0.00000000000000	0.00000000000000	-16.77377700000000	0.00000000000000	
8.92496700000000	-8.57157700000000	84.45132200000000	-15.76381100000000	0.30194400000000	0.00000000000000	0.09698700000000	-47.58907500000000	773.16776000000004	-58.02125800000000	0.07809800000000	0.00000000000000	-0.10251200000000	0.00000000000000	-9.52008300000000	0.00000000000000	0.00000000000000	-16.74893600000000	0.00000000000000	
8.92662700000000	-8.33166900000000	91.15214100000000	-16.06332400000000	0.30418100000000	0.00000000000000	0.09775100000000	-48.22175400000000	769.42796799999996	-57.47728500000000	0.07746600000000	0.00000000000000	-0.10236500000000	0.00000000000000	-9.81207500000000	0.00000000000000	0.00000000000000	-16.72713600000000	0.00000000000000	
8.92829700000000	-7.95257300000000	97.72301000000000	-16.20467800000000	0.30629600000000	0.00000000000000	0.09847400000000	-48.86533300000000	765.56467699999996	-56.90879400000000	0.07683900000000	0.00000000000000	-0.10221300000000	0.00000000000000	-10.02049600000000	0.00000000000000	0.00000000000000	-16.70828400000000	0.00000000000000	
8.92996600000000	-7.44920800000000	104.19923100000000	-16.20515800000000	0.30830300000000	0.00000000000000	0.09916200000000	-49.51894900000000	761.57676200000003	-56.31583800000000	0.07621700000000	0.00000000000000	-0.10205500000000	0.00000000000000	-10.15451500000000	0.00000000000000	0.00000000000000	-16.69226800000000	0.00000000000000	
8.93163500000000	-6.83780200000000	110.62536900000001	-16.08416000000000	0.31021300000000	0.00000000000000	0.09981800000000	-50.18165200000000	757.46306700000002	-55.69850700000000	0.07560200000000	0.00000000000000	-0.10189200000000	0.00000000000000	-10.22466700000000	0.00000000000000	0.00000000000000	-16.67895300000000	0.00000000000000	
8.93329600000000	-6.13460900000000	117.05032400000000	-15.86146800000000	0.31203400000000	0.00000000000000	0.10044500000000	-50.85240900000000	753.22240299999999	-55.05692200000000	0.07499300000000	0.00000000000000	-0.10172400000000	0.00000000000000	-10.24187100000000	0.00000000000000	0.00000000000000	-16.66818400000000	0.00000000000000	
8.93496300000000	-5.35484200000000	123.52288400000000	-15.55581200000000	0.31377600000000	0.00000000000000	0.10104600000000	-51.53010100000000	748.85355900000002	-54.39124400000000	0.07439000000000	0.00000000000000	-0.10155100000000	0.00000000000000	-10.21657200000000	0.00000000000000	0.00000000000000	-16.65978400000000	0.00000000000000	
8.93662700000000	-4.51187800000000	130.08803599999999	-15.18374400000000	0.31544500000000	0.00000000000000	0.10162300000000	-52.21352900000000	744.35530400000005	-53.70167300000000	0.07379400000000	0.00000000000000	-0.10137200000000	0.00000000000000	-10.15807400000000	0.00000000000000	0.00000000000000	-16.65355900000000	0.00000000000000	
8.93829700000000	-3.61673500000000	136.78417500000000	-14.75888300000000	0.31704600000000	0.00000000000000	0.10217800000000	-52.90141200000000	739.72639300000003	-52.98844700000000	0.07320600000000	0.00000000000000	-0.10118700000000	0.00000000000000	-10.07407600000000	0.00000000000000	0.00000000000000	-16.64929100000000	0.00000000000000	
8.93996500000000	-2.67783400000000	143.64127900000000	-14.29151100000000	0.31858400000000	0.00000000000000	0.10271400000000	-53.59239300000000	734.96557600000006	-52.25184900000000	0.07262600000000	0.00000000000000	-0.10099700000000	0.00000000000000	-9.97040400000000	0.00000000000000	0.00000000000000	-16.64674600000000	0.00000000000000	
8.94163000000000	-1.70099400000000	150.68000200000000	-13.78849900000000	0.32006200000000	0.00000000000000	0.10323100000000	-54.28503600000000	730.07160799999997	-51.49220600000000	0.07205300000000	0.00000000000000	-0.10080200000000	0.00000000000000	-9.85093800000000	0.00000000000000	0.00000000000000	-16.64566900000000	0.00000000000000	
8.94330200000000	-0.68962600000000	157.91159600000000	-13.25349500000000	0.32148400000000	0.00000000000000	0.10373100000000	-54.97783400000000	725.04325100000005	-50.70988700000000	0.07148900000000	0.00000000000000	-0.10060000000000	0.00000000000000	-9.71769600000000	0.00000000000000	0.00000000000000	-16.64578800000000	0.00000000000000	
8.94496500000000	0.35492000000000	165.33851200000001	-12.68732300000000	0.32285200000000	0.00000000000000	0.10421400000000	-55.66920900000000	719.87928999999997	-49.90531100000000	0.07093400000000	0.00000000000000	-0.10039400000000	0.00000000000000	-9.57104500000000	0.00000000000000	0.00000000000000	-16.64681200000000	0.00000000000000	
8.94662600000000	1.43292000000000	172.95551000000000	-12.08852500000000	0.32416800000000	0.00000000000000	0.10468300000000	-56.35751800000000	714.57853899999998	-49.07894300000000	0.07038700000000	0.00000000000000	-0.10018100000000	0.00000000000000	-9.40999400000000	0.00000000000000	0.00000000000000	-16.64843500000000	0.00000000000000	
